<?xml version="1.0" encoding="iso-8859-1"?>
<!-- Generator: Adobe Illustrator 18.1.1, SVG Export Plug-In . SVG Version: 6.00 Build 0)  -->
<svg version="1.1" id="Capa_1" xmlns="http://www.w3.org/2000/svg" xmlns:xlink="http://www.w3.org/1999/xlink" x="0px" y="0px"
	 viewBox="0 0 32.004 32.004" style="enable-background:new 0 0 32.004 32.004;" xml:space="preserve">
<g>
	<g>
		<path style="fill:#1A6ECB;" d="M27.586,14.214c-0.172-0.456-0.393-0.887-0.656-1.287c0.047-0.302,0.07-0.611,0.07-0.925
			c0-3.313-2.688-6-6-6c-1.533,0-2.932,0.575-3.992,1.521C15.576,6.563,13.854,6.002,12,6.002c-4.904,0-8.894,3.924-8.998,8.803
			C1.207,15.844,0,17.785,0,20.002c0,3.312,2.688,6,6,6h3.8l0.8-2H5.997c-2.203,0-3.997-1.791-3.997-4
			c0-1.893,1.317-3.482,3.087-3.896C5.029,15.747,5,15.378,5,15.002c0-3.866,3.134-7,7-7c3.162,0,5.834,2.097,6.702,4.975
			c0.769-0.611,1.739-0.975,2.798-0.975c2.316,0,4.225,1.75,4.473,4h0.03c2.203,0,3.997,1.791,3.997,4c0,2.205-1.789,4-3.997,4H23
			l-2,2h5c3.312,0,6-2.693,6-6C32,17.236,30.13,14.909,27.586,14.214z M21.5,10.002c-0.641,0-1.26,0.093-1.844,0.266
			c-0.319-0.515-0.688-0.994-1.1-1.432C19.23,8.313,20.079,8.002,21,8.002c1.839,0,3.389,1.241,3.855,2.933
			C23.876,10.343,22.729,10.002,21.5,10.002z"/>
		<polygon style="fill:#1A6ECB;" points="19,19.002 14.714,19.002 12,26.002 14.429,26.002 13,31.002 20,24.002 16.551,24.002 		"/>
		<path style="fill:#1A6ECB;" d="M27.373,7.047l1.4-1.401c0.396-0.394,0.399-1.027,0.008-1.421c-0.391-0.39-1.021-0.393-1.422,0.007
			l-1.4,1.401c-0.395,0.394-0.4,1.027-0.007,1.421C26.343,7.444,26.973,7.447,27.373,7.047z"/>
		<path style="fill:#1A6ECB;" d="M21,5.002c0.553,0,1-0.443,1-1.01v-1.98c0-0.558-0.443-1.01-1-1.01c-0.553,0-1,0.443-1,1.01v1.98
			C20,4.55,20.443,5.002,21,5.002z"/>
		<path style="fill:#1A6ECB;" d="M28.004,12.006c0,0.552,0.443,1,1.01,1h1.98c0.558,0,1.01-0.444,1.01-1c0-0.553-0.443-1-1.01-1
			h-1.98C28.456,11.006,28.004,11.449,28.004,12.006z"/>
	</g>
</g>
<g>
</g>
<g>
</g>
<g>
</g>
<g>
</g>
<g>
</g>
<g>
</g>
<g>
</g>
<g>
</g>
<g>
</g>
<g>
</g>
<g>
</g>
<g>
</g>
<g>
</g>
<g>
</g>
<g>
</g>
</svg>
